<svg xmlns="http://www.w3.org/2000/svg" width="216" height="198" viewBox="0 0 216 198">
  <defs>
    <style>
      .cls-1 {
        fill: #61b601;
      }
    </style>
  </defs>
  <path id="caishichang-" class="cls-1" d="M311.418,184.782H242.257V166.308a32.051,32.051,0,0,0-64.1,0v18.473H108.995a7.457,7.457,0,0,0-5.4,2.519,6.365,6.365,0,0,0-1.181,5.71l33.737,134.351a6.549,6.549,0,0,0,6.579,5.038H277.681a6.83,6.83,0,0,0,6.579-5.038L318,193.011a6.788,6.788,0,0,0-1.181-5.71,7.457,7.457,0,0,0-5.4-2.519ZM191.651,166.308a18.556,18.556,0,0,1,37.111,0v18.473H191.651Zm80.8,152.824H147.961L117.6,198.217H302.815Zm-97.669-36.275a6.665,6.665,0,0,1-5.735,7.557h-1.012a6.725,6.725,0,0,1-6.747-5.71l-8.434-58.779a6.727,6.727,0,0,1,13.326-1.847l8.6,58.779Zm70.848,0,8.434-58.779a6.727,6.727,0,0,1,13.326,1.847l-8.434,58.779a6.725,6.725,0,0,1-6.747,5.71H251.2A6.665,6.665,0,0,1,245.631,282.858Zm-28.677-57.771v58.779a6.748,6.748,0,0,1-13.495,0V225.087a6.748,6.748,0,0,1,13.495,0Z" transform="translate(-102.193 -134.4)"/>
</svg>
